<?xml version="1.0" encoding="utf-8"?>
<!-- Generator: Adobe Illustrator 21.0.0, SVG Export Plug-In . SVG Version: 6.00 Build 0)  -->
<svg version="1.1" id="Capa_1" xmlns="http://www.w3.org/2000/svg" xmlns:xlink="http://www.w3.org/1999/xlink" x="0px" y="0px"
	 width="80px" height="80px" viewBox="0 0 80 80" style="enable-background:new 0 0 80 80;" xml:space="preserve">
<style type="text/css">
	.st0{
		fill:transparent;
		-webkit-animation: colorV 2s forwards 3s;
		-moz-webkit-animation: colorV 2s forwards 3s;
		-o-webkit-animation: colorV 2s forwards 3s;
		animation: colorV 2s forwards 3s;
	}

	@-webkit-keyframes colorV{
		from{fill:transparent;}
		to{fill:#038cd4}
	}
	@keyframes colorV{
		from{fill:transparent;}
		to{fill:#038cd4}
	}

	.st1{
		fill:none;
		stroke:#101a4d;
		stroke-width: 1.5px;
		stroke-miterlimit:10;
		stroke-dasharray:200;
		stroke-dashoffset:0;
		-webkit-animation: animacionV 5s forwards;
		-moz-webkit-animation: animacionV 5s forwards;
		-o-webkit-animation: animacionV 5s forwards;
		animation: animacionV 5s forwards;
	}
	@-webkit-keyframes animacionV{
		0%{stroke-dashoffset: 200;}
		80%{stroke:#101a4d}
		100%{stroke-dashoffset: 0;stroke:transparent}
	}
	@keyframes animacionV{
		0%{stroke-dashoffset: 200;}
		80%{stroke:#101a4d}
		100%{stroke-dashoffset: 0;stroke:transparent}
	}
</style>
<g id="quality_1_">
	<g>
		<path class="st0" d="M32.136,78.717c-0.615-0.377-0.77-0.997-0.908-1.647c-0.706-3.322-1.427-6.642-2.146-9.961
			c-0.032-0.146-0.085-0.287-0.157-0.525c-0.286,0.143-0.543,0.267-0.796,0.4c-3.007,1.58-6.016,3.156-9.019,4.745
			c-0.604,0.319-1.187,0.474-1.729-0.069c-0.511-0.512-0.386-1.068-0.106-1.666c2.518-5.377,5.022-10.761,7.529-16.144
			c0.116-0.25,0.229-0.502,0.259-0.566c-0.867-1.682-1.696-3.229-2.465-4.806c-0.382-0.784-0.895-1.352-1.708-1.713
			c-1.103-0.489-2.174-1.053-3.243-1.614c-1.818-0.955-2.636-2.479-2.507-4.524c0.073-1.157,0.111-2.316,0.215-3.469
			c0.079-0.873-0.125-1.623-0.643-2.335c-0.651-0.895-1.233-1.841-1.849-2.761c-1.209-1.808-1.226-3.616-0.014-5.431
			c0.657-0.984,1.368-1.939,1.941-2.971c0.313-0.563,0.525-1.256,0.539-1.895c0.028-1.23-0.103-2.465-0.191-3.696
			c-0.146-2.039,0.733-3.633,2.561-4.567c1.165-0.595,2.366-1.127,3.499-1.777c0.474-0.272,0.922-0.714,1.194-1.187
			c0.638-1.111,1.157-2.289,1.734-3.436c0.904-1.798,2.358-2.707,4.379-2.631c1.258,0.047,2.516,0.216,3.771,0.197
			c0.667-0.01,1.395-0.183,1.98-0.497c1.038-0.559,1.987-1.281,2.973-1.936c1.917-1.272,3.619-1.272,5.554,0.005
			c0.946,0.624,1.901,1.236,2.826,1.889c0.674,0.476,1.378,0.646,2.203,0.564c1.252-0.124,2.513-0.188,3.771-0.223
			c1.925-0.055,3.337,0.814,4.226,2.51c0.572,1.092,1.133,2.192,1.644,3.313c0.344,0.754,0.865,1.259,1.613,1.604
			c1.097,0.505,2.171,1.059,3.245,1.612c1.858,0.957,2.684,2.495,2.546,4.573c-0.082,1.232-0.218,2.466-0.189,3.696
			c0.015,0.639,0.227,1.332,0.542,1.893c0.602,1.073,1.356,2.06,2.022,3.098c1.086,1.694,1.096,3.411,0.014,5.111
			c-0.676,1.062-1.441,2.071-2.061,3.163c-0.306,0.538-0.509,1.21-0.52,1.825c-0.021,1.256,0.115,2.515,0.194,3.772
			c0.13,2.047-0.696,3.567-2.515,4.517c-1.159,0.606-2.364,1.128-3.5,1.774c-0.476,0.271-0.936,0.698-1.213,1.166
			c-0.934,1.574-1.795,3.192-2.644,4.815c-0.093,0.178,0.022,0.515,0.126,0.739c2.488,5.364,4.987,10.722,7.484,16.081
			c0.074,0.16,0.15,0.319,0.226,0.477c0.258,0.534,0.216,1.039-0.212,1.458c-0.453,0.444-0.969,0.454-1.525,0.159
			c-1.71-0.91-3.428-1.808-5.143-2.709c-1.601-0.841-3.204-1.68-4.893-2.565c-0.314,1.435-0.615,2.803-0.913,4.171
			c-0.476,2.188-0.918,4.384-1.448,6.559c-0.126,0.515-0.545,0.958-0.829,1.434c-0.302,0-0.605,0-0.907,0
			c-0.297-0.42-0.663-0.807-0.879-1.266c-1.918-4.065-3.809-8.142-5.71-12.214c-0.099-0.211-0.22-0.412-0.376-0.704
			c-0.17,0.332-0.289,0.548-0.393,0.771c-1.879,4.027-3.748,8.059-5.645,12.078c-0.227,0.481-0.602,0.892-0.909,1.335
			C32.74,78.717,32.438,78.717,32.136,78.717z M62.416,18.294c0.4-1.422-0.417-2.406-1.962-3.032
			c-0.953-0.386-1.847-0.916-2.777-1.362c-1.017-0.488-1.759-1.237-2.251-2.249c-0.539-1.108-1.119-2.198-1.635-3.316
			c-0.496-1.075-1.293-1.545-2.47-1.446c-1.179,0.099-2.365,0.13-3.543,0.237c-1.177,0.107-2.244-0.133-3.224-0.8
			c-1.02-0.694-2.07-1.344-3.078-2.055c-0.988-0.696-1.924-0.726-2.922-0.016c-1.005,0.714-2.056,1.363-3.079,2.052
			c-1.002,0.675-2.092,0.933-3.297,0.821c-1.178-0.11-2.363-0.146-3.543-0.24c-1.145-0.091-1.925,0.373-2.412,1.416
			c-0.532,1.139-1.118,2.253-1.673,3.381c-0.484,0.984-1.208,1.718-2.199,2.199c-1.132,0.548-2.256,1.112-3.379,1.678
			c-1.158,0.583-1.493,1.196-1.408,2.481c0.085,1.282,0.146,2.565,0.229,3.846c0.07,1.074-0.226,2.037-0.822,2.923
			c-0.66,0.982-1.279,1.993-1.974,2.95c-0.766,1.056-0.794,2.051-0.023,3.119c0.707,0.979,1.34,2.011,2.015,3.013
			c0.582,0.864,0.869,1.803,0.801,2.851c-0.085,1.307-0.144,2.615-0.229,3.922c-0.08,1.244,0.252,1.858,1.374,2.425
			c1.122,0.568,2.249,1.127,3.381,1.676c1.014,0.492,1.757,1.239,2.249,2.252c0.572,1.176,1.163,2.343,1.744,3.515
			c0.438,0.884,1.148,1.311,2.133,1.256c1.257-0.071,2.515-0.135,3.77-0.242c1.175-0.1,2.246,0.139,3.227,0.8
			c1.065,0.717,2.15,1.404,3.209,2.129c0.925,0.634,1.817,0.619,2.734-0.009c0.997-0.682,2.02-1.327,3.013-2.016
			c1.061-0.737,2.212-1.025,3.5-0.896c1.177,0.118,2.362,0.152,3.543,0.238c1.084,0.078,1.834-0.381,2.305-1.351
			c0.56-1.154,1.142-2.298,1.706-3.45c0.483-0.986,1.205-1.719,2.198-2.199c1.133-0.547,2.257-1.112,3.38-1.679
			c1.161-0.586,1.495-1.197,1.411-2.48c-0.082-1.257-0.136-2.515-0.223-3.771c-0.079-1.128,0.221-2.134,0.857-3.062
			c0.697-1.017,1.353-2.063,2.051-3.08c0.63-0.918,0.644-1.81,0.016-2.734c-0.721-1.062-1.414-2.143-2.128-3.211
			c-0.579-0.866-0.865-1.807-0.799-2.853C62.28,20.821,62.336,19.715,62.416,18.294z M40.63,57.366
			c-1.555,0.147-2.737-0.413-3.852-1.211c-0.819-0.586-1.635-1.196-2.526-1.653c-0.594-0.305-1.315-0.492-1.981-0.497
			c-1.433-0.01-2.866,0.179-4.3,0.186c-0.525,0.003-0.745,0.156-0.951,0.601c-1.942,4.203-3.904,8.396-5.858,12.594
			c-0.078,0.168-0.129,0.348-0.23,0.627c0.334-0.167,0.557-0.272,0.776-0.387c2.383-1.254,4.764-2.513,7.148-3.764
			c1.244-0.653,1.924-0.321,2.221,1.064c0.364,1.698,0.728,3.395,1.099,5.091c0.253,1.155,0.517,2.308,0.775,3.462
			c0.054,0,0.108,0.001,0.162,0.001C35.598,68.153,38.083,62.826,40.63,57.366z M58.949,67.958c0.044-0.07,0.073-0.098,0.068-0.11
			c-2.063-4.45-4.126-8.901-6.208-13.342c-0.07-0.149-0.334-0.28-0.516-0.292c-1.583-0.1-3.168-0.164-4.752-0.254
			c-1.147-0.065-3.168,1.111-3.654,2.152c-0.767,1.641-1.551,3.275-2.281,4.933c-0.13,0.296-0.156,0.746-0.026,1.031
			c1.655,3.614,3.348,7.212,5.032,10.813c0.098,0.21,0.211,0.412,0.404,0.787c0.67-3.089,1.292-5.963,1.917-8.837
			c0.276-1.268,0.991-1.599,2.157-0.999c0.693,0.357,1.382,0.724,2.073,1.086C55.094,65.937,57.024,66.948,58.949,67.958z"/>
		<path class="st0" d="M40.032,47.131c-9.81,0-17.855-7.957-17.852-17.657c0.004-9.991,7.953-17.919,17.973-17.925
			c9.678-0.005,17.686,8.095,17.653,17.857C57.774,39.191,49.813,47.13,40.032,47.131z M39.987,44.712
			c8.493,0.006,15.402-6.883,15.401-15.356c-0.001-8.489-6.891-15.377-15.38-15.377c-8.535,0-15.394,6.872-15.399,15.43
			C24.603,37.813,31.529,44.706,39.987,44.712z"/>
		<path class="st0" d="M48.411,40.053c0.019,1.043-0.959,1.58-1.936,1.055c-1.907-1.024-3.81-2.056-5.686-3.135
			c-0.564-0.324-0.984-0.354-1.565-0.016c-1.826,1.065-3.696,2.054-5.544,3.08c-0.509,0.283-1.017,0.474-1.554,0.096
			c-0.556-0.391-0.583-0.931-0.461-1.549c0.422-2.122,0.8-4.254,1.229-6.374c0.106-0.522,0.018-0.868-0.394-1.241
			c-1.588-1.436-3.13-2.924-4.701-4.38c-0.47-0.436-0.844-0.895-0.589-1.576c0.237-0.635,0.782-0.772,1.394-0.842
			c2.126-0.245,4.247-0.533,6.374-0.773c0.537-0.061,0.823-0.29,1.046-0.785c0.879-1.949,1.817-3.872,2.712-5.814
			c0.259-0.562,0.573-1.036,1.247-1.044c0.674-0.008,1.004,0.45,1.266,1.015c0.909,1.964,1.86,3.908,2.751,5.879
			c0.214,0.474,0.49,0.682,0.99,0.741c2.125,0.248,4.246,0.537,6.372,0.781c0.641,0.074,1.212,0.214,1.441,0.889
			c0.233,0.686-0.172,1.136-0.636,1.567c-1.533,1.423-3.033,2.882-4.593,4.273c-0.485,0.432-0.576,0.835-0.453,1.435
			c0.43,2.095,0.813,4.2,1.213,6.301C48.361,39.785,48.388,39.933,48.411,40.053z M31.053,27.312c1.074,1.01,1.949,2.002,2.99,2.77
			c1.377,1.016,1.694,2.185,1.206,3.788c-0.373,1.226-0.501,2.527-0.767,3.955c1.594-0.878,3.039-1.633,4.441-2.462
			c0.766-0.453,1.421-0.429,2.179,0.017c1.403,0.825,2.848,1.578,4.415,2.437c-0.322-1.701-0.573-3.26-0.923-4.798
			c-0.219-0.961-0.052-1.67,0.729-2.335c1.218-1.035,2.348-2.175,3.617-3.366c-1.547-0.2-2.936-0.494-4.333-0.528
			c-1.516-0.038-2.306-0.745-2.815-2.1c-0.48-1.276-1.142-2.484-1.795-3.872c-0.759,1.611-1.486,3.04-2.105,4.513
			c-0.382,0.907-0.972,1.298-1.936,1.381C34.381,26.848,32.814,27.091,31.053,27.312z"/>
	</g>
</g>
<g id="delineado-quality">
	<path class="st1" d="M32.136,78.717c-0.615-0.377-0.77-0.997-0.908-1.647c-0.706-3.322-1.427-6.642-2.146-9.961
		c-0.032-0.146-0.085-0.287-0.157-0.525c-0.286,0.143-0.543,0.267-0.796,0.4c-3.007,1.58-6.016,3.156-9.019,4.745
		c-0.604,0.319-1.187,0.474-1.729-0.069c-0.511-0.512-0.386-1.068-0.106-1.666c2.518-5.377,5.022-10.761,7.529-16.144
		c0.116-0.25,0.229-0.502,0.259-0.566c-0.867-1.682-1.696-3.229-2.465-4.806c-0.382-0.784-0.895-1.352-1.708-1.713
		c-1.103-0.489-2.174-1.053-3.243-1.614c-1.818-0.955-2.636-2.479-2.507-4.524c0.073-1.157,0.111-2.316,0.215-3.469
		c0.079-0.873-0.125-1.623-0.643-2.335c-0.651-0.895-1.233-1.841-1.849-2.761c-1.209-1.808-1.226-3.616-0.014-5.431
		c0.657-0.984,1.368-1.939,1.941-2.971c0.313-0.563,0.525-1.256,0.539-1.895c0.028-1.23-0.103-2.465-0.191-3.696
		c-0.146-2.039,0.733-3.633,2.561-4.567c1.165-0.595,2.366-1.127,3.499-1.777c0.474-0.272,0.922-0.714,1.194-1.187
		c0.638-1.111,1.157-2.289,1.734-3.436c0.904-1.798,2.358-2.707,4.379-2.631c1.258,0.047,2.516,0.216,3.771,0.197
		c0.667-0.01,1.395-0.183,1.98-0.497c1.038-0.559,1.987-1.281,2.973-1.936c1.917-1.272,3.619-1.272,5.554,0.005
		c0.946,0.624,1.901,1.236,2.826,1.889c0.674,0.476,1.378,0.646,2.203,0.564c1.252-0.124,2.513-0.188,3.771-0.223
		c1.925-0.055,3.337,0.814,4.226,2.51c0.572,1.092,1.133,2.192,1.644,3.313c0.344,0.754,0.865,1.259,1.613,1.604
		c1.097,0.505,2.171,1.059,3.245,1.612c1.858,0.957,2.684,2.495,2.546,4.573c-0.082,1.232-0.218,2.466-0.189,3.696
		c0.015,0.639,0.227,1.332,0.542,1.893c0.602,1.073,1.356,2.06,2.022,3.098c1.086,1.694,1.096,3.411,0.014,5.111
		c-0.676,1.062-1.441,2.071-2.061,3.163c-0.306,0.538-0.509,1.21-0.52,1.825c-0.021,1.256,0.115,2.515,0.194,3.772
		c0.13,2.047-0.696,3.567-2.515,4.517c-1.159,0.606-2.364,1.128-3.5,1.774c-0.476,0.271-0.936,0.698-1.213,1.166
		c-0.934,1.574-1.795,3.192-2.644,4.815c-0.093,0.178,0.022,0.515,0.126,0.739c2.488,5.364,4.987,10.722,7.484,16.081
		c0.074,0.16,0.15,0.319,0.226,0.477c0.258,0.534,0.216,1.039-0.212,1.458c-0.453,0.444-0.969,0.454-1.525,0.159
		c-1.71-0.91-3.428-1.808-5.143-2.709c-1.601-0.841-3.204-1.68-4.893-2.565c-0.314,1.435-0.615,2.803-0.913,4.171
		c-0.476,2.188-0.918,4.384-1.448,6.559c-0.126,0.515-0.545,0.958-0.829,1.434c-0.302,0-0.605,0-0.907,0
		c-0.297-0.42-0.663-0.807-0.879-1.266c-1.918-4.065-3.809-8.142-5.71-12.214c-0.099-0.211-0.22-0.412-0.376-0.704
		c-0.17,0.332-0.289,0.548-0.393,0.771c-1.879,4.027-3.748,8.059-5.645,12.078c-0.227,0.481-0.602,0.892-0.909,1.335
		C32.74,78.717,32.438,78.717,32.136,78.717z M62.416,18.294c0.4-1.422-0.417-2.406-1.962-3.032
		c-0.953-0.386-1.847-0.916-2.777-1.362c-1.017-0.488-1.759-1.237-2.251-2.249c-0.539-1.108-1.119-2.198-1.635-3.316
		c-0.496-1.075-1.293-1.545-2.47-1.446c-1.179,0.099-2.365,0.13-3.543,0.237c-1.177,0.107-2.244-0.133-3.224-0.8
		c-1.02-0.694-2.07-1.344-3.078-2.055c-0.988-0.696-1.924-0.726-2.922-0.016c-1.005,0.714-2.056,1.363-3.079,2.052
		c-1.002,0.675-2.092,0.933-3.297,0.821c-1.178-0.11-2.363-0.146-3.543-0.24c-1.145-0.091-1.925,0.373-2.412,1.416
		c-0.532,1.139-1.118,2.253-1.673,3.381c-0.484,0.984-1.208,1.718-2.199,2.199c-1.132,0.548-2.256,1.112-3.379,1.678
		c-1.158,0.583-1.493,1.196-1.408,2.481c0.085,1.282,0.146,2.565,0.229,3.846c0.07,1.074-0.226,2.037-0.822,2.923
		c-0.66,0.982-1.279,1.993-1.974,2.95c-0.766,1.056-0.794,2.051-0.023,3.119c0.707,0.979,1.34,2.011,2.015,3.013
		c0.582,0.864,0.869,1.803,0.801,2.851c-0.085,1.307-0.144,2.615-0.229,3.922c-0.08,1.244,0.252,1.858,1.374,2.425
		c1.122,0.568,2.249,1.127,3.381,1.676c1.014,0.492,1.757,1.239,2.249,2.252c0.572,1.176,1.163,2.343,1.744,3.515
		c0.438,0.884,1.148,1.311,2.133,1.256c1.257-0.071,2.515-0.135,3.77-0.242c1.175-0.1,2.246,0.139,3.227,0.8
		c1.065,0.717,2.15,1.404,3.209,2.129c0.925,0.634,1.817,0.619,2.734-0.009c0.997-0.682,2.02-1.327,3.013-2.016
		c1.061-0.737,2.212-1.025,3.5-0.896c1.177,0.118,2.362,0.152,3.543,0.238c1.084,0.078,1.834-0.381,2.305-1.351
		c0.56-1.154,1.142-2.298,1.706-3.45c0.483-0.986,1.205-1.719,2.198-2.199c1.133-0.547,2.257-1.112,3.38-1.679
		c1.161-0.586,1.495-1.197,1.411-2.48c-0.082-1.257-0.136-2.515-0.223-3.771c-0.079-1.128,0.221-2.134,0.857-3.062
		c0.697-1.017,1.353-2.063,2.051-3.08c0.63-0.918,0.644-1.81,0.016-2.734c-0.721-1.062-1.414-2.143-2.128-3.211
		c-0.579-0.866-0.865-1.807-0.799-2.853C62.28,20.821,62.336,19.715,62.416,18.294z M40.63,57.366
		c-1.555,0.147-2.737-0.413-3.852-1.211c-0.819-0.586-1.635-1.196-2.526-1.653c-0.594-0.305-1.315-0.492-1.981-0.497
		c-1.433-0.01-2.866,0.179-4.3,0.186c-0.525,0.003-0.745,0.156-0.951,0.601c-1.942,4.203-3.904,8.396-5.858,12.594
		c-0.078,0.168-0.129,0.348-0.23,0.627c0.334-0.167,0.557-0.272,0.776-0.387c2.383-1.254,4.764-2.513,7.148-3.764
		c1.244-0.653,1.924-0.321,2.221,1.064c0.364,1.698,0.728,3.395,1.099,5.091c0.253,1.155,0.517,2.308,0.775,3.462
		c0.054,0,0.108,0.001,0.162,0.001C35.598,68.153,38.083,62.826,40.63,57.366z M58.949,67.958c0.044-0.07,0.073-0.098,0.068-0.11
		c-2.063-4.45-4.126-8.901-6.208-13.342c-0.07-0.149-0.334-0.28-0.516-0.292c-1.583-0.1-3.168-0.164-4.752-0.254
		c-1.147-0.065-3.168,1.111-3.654,2.152c-0.767,1.641-1.551,3.275-2.281,4.933c-0.13,0.296-0.156,0.746-0.026,1.031
		c1.655,3.614,3.348,7.212,5.032,10.813c0.098,0.21,0.211,0.412,0.404,0.787c0.67-3.089,1.292-5.963,1.917-8.837
		c0.276-1.268,0.991-1.599,2.157-0.999c0.693,0.357,1.382,0.724,2.073,1.086C55.094,65.937,57.024,66.948,58.949,67.958z"/>
	<path class="st1" d="M40.032,47.131c-9.81,0-17.855-7.957-17.852-17.657c0.004-9.991,7.953-17.919,17.973-17.925
		c9.678-0.005,17.686,8.095,17.653,17.857C57.774,39.191,49.813,47.13,40.032,47.131z M39.987,44.712
		c8.493,0.006,15.402-6.883,15.401-15.356c-0.001-8.489-6.891-15.377-15.38-15.377c-8.535,0-15.394,6.872-15.399,15.43
		C24.603,37.813,31.529,44.706,39.987,44.712z"/>
	<path class="st1" d="M48.411,40.053c0.019,1.043-0.959,1.58-1.936,1.055c-1.907-1.024-3.81-2.056-5.686-3.135
		c-0.564-0.324-0.984-0.354-1.565-0.016c-1.826,1.065-3.696,2.054-5.544,3.08c-0.509,0.283-1.017,0.474-1.554,0.096
		c-0.556-0.391-0.583-0.931-0.461-1.549c0.422-2.122,0.8-4.254,1.229-6.374c0.106-0.522,0.018-0.868-0.394-1.241
		c-1.588-1.436-3.13-2.924-4.701-4.38c-0.47-0.436-0.844-0.895-0.589-1.576c0.237-0.635,0.782-0.772,1.394-0.842
		c2.126-0.245,4.247-0.533,6.374-0.773c0.537-0.061,0.823-0.29,1.046-0.785c0.879-1.949,1.817-3.872,2.712-5.814
		c0.259-0.562,0.573-1.036,1.247-1.044c0.674-0.008,1.004,0.45,1.266,1.015c0.909,1.964,1.86,3.908,2.751,5.879
		c0.214,0.474,0.49,0.682,0.99,0.741c2.125,0.248,4.246,0.537,6.372,0.781c0.641,0.074,1.212,0.214,1.441,0.889
		c0.233,0.686-0.172,1.136-0.636,1.567c-1.533,1.423-3.033,2.882-4.593,4.273c-0.485,0.432-0.576,0.835-0.453,1.435
		c0.43,2.095,0.813,4.2,1.213,6.301C48.361,39.785,48.388,39.933,48.411,40.053z M31.053,27.312c1.074,1.01,1.949,2.002,2.99,2.77
		c1.377,1.016,1.694,2.185,1.206,3.788c-0.373,1.226-0.501,2.527-0.767,3.955c1.594-0.878,3.039-1.633,4.441-2.462
		c0.766-0.453,1.421-0.429,2.179,0.017c1.403,0.825,2.848,1.578,4.415,2.437c-0.322-1.701-0.573-3.26-0.923-4.798
		c-0.219-0.961-0.052-1.67,0.729-2.335c1.218-1.035,2.348-2.175,3.617-3.366c-1.547-0.2-2.936-0.494-4.333-0.528
		c-1.516-0.038-2.306-0.745-2.815-2.1c-0.48-1.276-1.142-2.484-1.795-3.872c-0.759,1.611-1.486,3.04-2.105,4.513
		c-0.382,0.907-0.972,1.298-1.936,1.381C34.381,26.848,32.814,27.091,31.053,27.312z"/>
</g>
</svg>
