<?xml version="1.0" encoding="utf-8"?>
<!-- Generator: Adobe Illustrator 21.0.0, SVG Export Plug-In . SVG Version: 6.00 Build 0)  -->
<svg version="1.1" id="Capa_1" xmlns="http://www.w3.org/2000/svg" xmlns:xlink="http://www.w3.org/1999/xlink" x="0px" y="0px"
	 width="80px" height="80px" viewBox="0 0 80 80" style="enable-background:new 0 0 80 80;" xml:space="preserve">
<style type="text/css">
	.st0{
		fill:transparent;
		-webkit-animation: colorV 2s forwards 2.5s;
		-moz-webkit-animation: colorV 2s forwards 2.5s;
		-o-webkit-animation: colorV 2s forwards 2.5s;
		animation: colorV 2s forwards 2.5s;
	}

	@-webkit-keyframes colorV{
		from{fill:transparent;}
		to{fill:#038cd4}
	}
	@keyframes colorV{
		from{fill:transparent;}
		to{fill:#038cd4}
	}
	
	.st1{
		fill:none;
		stroke:#101a4d;
		stroke-width: 1.5px;
		stroke-miterlimit:10;
		stroke-dasharray:100;
		stroke-dashoffset:0;
		-webkit-animation: animacionV 5s forwards;
		-moz-webkit-animation: animacionV 5s forwards;
		-o-webkit-animation: animacionV 5s forwards;
		animation: animacionV 5s forwards;
	}
	@-webkit-keyframes animacionV{
		0%{stroke-dashoffset: 100;}
		80%{stroke:#101a4d}
		100%{stroke-dashoffset: 0;stroke:transparent}
	}
	@keyframes animacionV{
		0%{stroke-dashoffset: 100;}
		80%{stroke:#101a4d}
		100%{stroke-dashoffset: 0;stroke:transparent}
	}
</style>
<g id="alliance_1_">
	<path class="st0" d="M79.028,38.632c-0.424,1.002-1.208,1.539-2.217,1.899c-1.695,0.605-3.365,1.286-5.029,1.974
		c-1.015,0.42-1.954,0.475-2.866-0.243c-0.124-0.098-0.439-0.095-0.583-0.005c-1.357,0.843-2.696,1.714-4.026,2.569
		c0.88,4.325-1.108,6.704-5.321,6.421c-0.849,3.135-2.048,4.063-5.476,4.194c-0.144,1.489-0.736,2.768-2.032,3.625
		c-1.262,0.835-2.639,0.975-4.121,0.532c-0.448,2.123-1.627,3.504-3.759,3.953c-2.164,0.456-3.663-0.835-5.264-2.071
		c-0.34,0.393-0.66,0.777-0.996,1.146c-1.162,1.274-2.587,1.774-4.265,1.322c-1.644-0.442-2.619-1.552-3.017-3.206
		c-0.051-0.213-0.323-0.51-0.518-0.532c-2.372-0.266-3.559-1.277-4.124-3.578c-0.023-0.095-0.057-0.188-0.083-0.272
		c-2.881-0.321-4.084-1.355-4.586-3.924c-3.517,0.134-5.657-3.266-3.993-6.439c-0.287-0.209-0.576-0.442-0.887-0.64
		c-1.434-0.915-2.877-1.817-4.312-2.73c-0.31-0.197-0.56-0.32-0.952-0.077c-0.667,0.414-1.395,0.354-2.122,0.061
		c-1.93-0.776-3.869-1.527-5.802-2.297c-1.548-0.617-2.069-1.807-1.455-3.368C3.758,30.504,6.3,24.063,8.848,17.624
		c0.129-0.325,0.287-0.665,0.518-0.919c0.697-0.769,1.577-1.02,2.557-0.646c2.085,0.796,4.162,1.616,6.231,2.451
		c1.03,0.415,1.498,1.222,1.525,2.329c0.005,0.206,0.18,0.506,0.359,0.595c1.445,0.721,2.945,1.061,4.603,1.092
		c3.187,0.059,6.411-0.005,9.51,1.008c0.181,0.059,0.474-0.055,0.648-0.181c0.285-0.206,0.521-0.482,0.768-0.738
		c1.553-1.609,3.436-2.168,5.623-1.796c1.226,0.208,2.456,0.39,3.684,0.587c0.819,0.131,1.277,0.629,1.203,1.296
		c-0.079,0.703-0.654,1.096-1.528,0.975c-1.307-0.182-2.612-0.387-3.912-0.615c-1.369-0.24-2.479,0.187-3.447,1.16
		c-2.764,2.778-5.7,5.36-8.895,7.637c-0.538,0.383-1.1,0.732-1.631,1.124c-0.572,0.422-0.578,0.836-0.033,1.302
		c1.33,1.134,2.844,1.233,4.444,0.75c2.016-0.609,3.664-1.835,5.232-3.181c1.566-1.344,2.792-1.31,4.258,0.116
		c3.2,3.113,6.996,4.505,11.458,3.892c0.628-0.086,1.119,0.05,1.623,0.426c3.034,2.261,6.085,4.499,9.167,6.77
		c1.623-1.044,3.239-2.085,4.902-3.155c-2.164-5.488-4.312-10.933-6.493-16.466c-0.451,0.154-0.893,0.252-1.288,0.448
		c-2.916,1.449-5.941,1.577-9.051,0.803c-0.27-0.067-0.555-0.072-0.825-0.14c-0.663-0.167-1.008-0.657-0.928-1.283
		c0.078-0.609,0.562-1.026,1.246-0.949c1.109,0.124,2.215,0.294,3.313,0.493c1.187,0.216,2.326,0.068,3.443-0.339
		c1.068-0.389,2.132-0.788,3.177-1.175c-0.02-1.735,0.379-2.333,1.985-2.976c1.837-0.735,3.677-1.462,5.521-2.178
		c1.508-0.585,2.699-0.06,3.308,1.461c0.942,2.355,1.87,4.716,2.799,7.076c0.353,0.897,0.175,1.514-0.504,1.801
		c-0.671,0.284-1.253-0.047-1.608-0.937c-0.966-2.426-1.924-4.854-2.919-7.366c-2.092,0.825-4.154,1.637-6.305,2.485
		c2.621,6.643,5.221,13.233,7.853,19.904c2.129-0.839,4.193-1.652,6.305-2.484c-0.906-2.304-1.787-4.542-2.667-6.781
		c-0.074-0.189-0.171-0.373-0.214-0.569c-0.134-0.624,0.059-1.135,0.669-1.366c0.592-0.224,1.135-0.055,1.422,0.533
		c0.31,0.637,0.537,1.314,0.805,1.972c0.753,1.848,1.508,3.694,2.262,5.542C79.028,37.819,79.028,38.226,79.028,38.632z
		 M39.79,59.833c0.82,0.486,1.575,1.068,2.426,1.405c1.002,0.397,2.139-0.201,2.604-1.174c0.467-0.978,0.225-1.929-0.664-2.617
		c-0.583-0.451-1.173-0.892-1.744-1.356c-0.655-0.533-0.765-1.169-0.326-1.716c0.429-0.535,1.076-0.559,1.755-0.061
		c0.184,0.135,0.361,0.28,0.544,0.418c1.074,0.811,2.121,1.661,3.231,2.42c1.079,0.738,2.472,0.447,3.173-0.569
		c0.696-1.01,0.458-2.268-0.586-3.076c-0.924-0.715-1.855-1.421-2.774-2.141c-0.694-0.544-0.837-1.213-0.399-1.767
		c0.433-0.547,1.062-0.577,1.752-0.073c0.307,0.225,0.602,0.467,0.905,0.697c1.112,0.844,2.198,1.728,3.347,2.519
		c1.08,0.743,2.482,0.459,3.179-0.548c0.711-1.028,0.482-2.262-0.57-3.073c-1.106-0.853-2.241-1.673-3.3-2.58
		c-0.298-0.255-0.528-0.774-0.508-1.158c0.016-0.308,0.416-0.776,0.719-0.844c0.378-0.084,0.911,0.059,1.239,0.295
		c1.605,1.16,3.152,2.399,4.748,3.572c0.374,0.275,0.844,0.492,1.299,0.571c0.984,0.169,1.955-0.432,2.336-1.334
		c0.415-0.983,0.106-2.11-0.867-2.836c-2.869-2.141-5.754-4.262-8.65-6.367c-0.237-0.172-0.612-0.258-0.908-0.23
		c-4.972,0.469-9.192-1.15-12.742-4.59c-0.487-0.472-0.765-0.438-1.241-0.016c-1.74,1.542-3.628,2.867-5.873,3.582
		c-2.256,0.718-4.411,0.576-6.376-0.868c-2.177-1.6-2.07-3.851,0.124-5.433c2.181-1.571,4.261-3.281,6.381-4.937
		c0.16-0.125,0.283-0.297,0.424-0.446c-0.022-0.093-0.043-0.185-0.065-0.278c-2.707-0.147-5.412-0.351-8.12-0.419
		c-1.394-0.035-2.725-0.182-3.997-0.772c-0.474-0.22-0.97-0.393-1.502-0.606c-2.23,5.656-4.43,11.236-6.643,16.85
		c2.083,1.324,4.107,2.609,6.147,3.905c0.637-0.737,1.208-1.451,1.836-2.113c1.15-1.212,2.575-1.604,4.174-1.161
		c1.576,0.437,2.537,1.514,2.924,3.103c0.052,0.215,0.118,0.426,0.177,0.641c1.188-0.043,2.209,0.259,3.087,1.001
		c0.894,0.755,1.308,1.766,1.502,2.887c1.19-0.032,2.214,0.268,3.091,1.005c0.897,0.755,1.328,1.76,1.491,2.882
		C40.625,52.304,42.622,56.761,39.79,59.833z M9.543,40.566c2.629-6.669,5.226-13.257,7.847-19.907
		c-2.142-0.844-4.203-1.656-6.308-2.486C8.454,24.84,5.855,31.433,3.235,38.079C5.354,38.914,7.417,39.728,9.543,40.566z
		 M20.575,50.087c0.199-0.097,0.699-0.198,0.978-0.502c1.095-1.195,2.16-2.422,3.154-3.701c0.583-0.751,0.367-1.788-0.343-2.397
		c-0.726-0.622-1.826-0.648-2.484,0.067c-1.08,1.174-2.11,2.397-3.107,3.644c-0.465,0.582-0.43,1.292-0.074,1.94
		C19.042,49.763,19.605,50.07,20.575,50.087z M29.727,48.85c-0.104-0.801-0.566-1.517-1.265-1.77
		c-0.786-0.284-1.521-0.16-2.086,0.477c-0.959,1.081-1.899,2.18-2.819,3.295c-0.742,0.9-0.648,2.02,0.178,2.709
		c0.803,0.67,1.893,0.582,2.648-0.269c0.943-1.062,1.867-2.141,2.756-3.249C29.409,49.707,29.535,49.252,29.727,48.85z
		 M34.37,61.836c0.234-0.118,0.753-0.233,1.05-0.554c1.067-1.152,2.091-2.348,3.067-3.577c0.607-0.764,0.436-1.845-0.275-2.474
		c-0.735-0.651-1.859-0.664-2.541,0.082c-1.059,1.159-2.07,2.365-3.053,3.59c-0.468,0.582-0.45,1.279-0.097,1.935
		C32.862,61.47,33.418,61.778,34.37,61.836z M34.32,52.753c-0.101-0.817-0.542-1.475-1.251-1.765
		c-0.736-0.301-1.511-0.159-2.08,0.481c-0.995,1.118-1.973,2.252-2.908,3.419c-0.675,0.842-0.528,1.926,0.264,2.585
		c0.764,0.636,1.893,0.574,2.6-0.213c0.982-1.095,1.936-2.217,2.857-3.363C34.055,53.58,34.151,53.137,34.32,52.753z"/>
</g>
<g id="delineado-alliance">
	<path class="st1" d="M79.028,38.632c-0.424,1.002-1.208,1.539-2.217,1.899c-1.695,0.605-3.365,1.286-5.029,1.974
		c-1.015,0.42-1.954,0.475-2.866-0.243c-0.124-0.098-0.439-0.095-0.583-0.005c-1.357,0.843-2.696,1.714-4.026,2.569
		c0.88,4.325-1.108,6.704-5.321,6.421c-0.849,3.135-2.048,4.063-5.476,4.194c-0.144,1.489-0.736,2.768-2.032,3.625
		c-1.262,0.835-2.639,0.975-4.121,0.532c-0.448,2.123-1.627,3.504-3.759,3.953c-2.164,0.456-3.663-0.835-5.264-2.071
		c-0.34,0.393-0.66,0.777-0.996,1.146c-1.162,1.274-2.587,1.774-4.265,1.322c-1.644-0.442-2.619-1.552-3.017-3.206
		c-0.051-0.213-0.323-0.51-0.518-0.532c-2.372-0.266-3.559-1.277-4.124-3.578c-0.023-0.095-0.057-0.188-0.083-0.272
		c-2.881-0.321-4.084-1.355-4.586-3.924c-3.517,0.134-5.657-3.266-3.993-6.439c-0.287-0.209-0.576-0.442-0.887-0.64
		c-1.434-0.915-2.877-1.817-4.312-2.73c-0.31-0.197-0.56-0.32-0.952-0.077c-0.667,0.414-1.395,0.354-2.122,0.061
		c-1.93-0.776-3.869-1.527-5.802-2.297c-1.548-0.617-2.069-1.807-1.455-3.368C3.758,30.504,6.3,24.063,8.848,17.624
		c0.129-0.325,0.287-0.665,0.518-0.919c0.697-0.769,1.577-1.02,2.557-0.646c2.085,0.796,4.162,1.616,6.231,2.451
		c1.03,0.415,1.498,1.222,1.525,2.329c0.005,0.206,0.18,0.506,0.359,0.595c1.445,0.721,2.945,1.061,4.603,1.092
		c3.187,0.059,6.411-0.005,9.51,1.008c0.181,0.059,0.474-0.055,0.648-0.181c0.285-0.206,0.521-0.482,0.768-0.738
		c1.553-1.609,3.436-2.168,5.623-1.796c1.226,0.208,2.456,0.39,3.684,0.587c0.819,0.131,1.277,0.629,1.203,1.296
		c-0.079,0.703-0.654,1.096-1.528,0.975c-1.307-0.182-2.612-0.387-3.912-0.615c-1.369-0.24-2.479,0.187-3.447,1.16
		c-2.764,2.778-5.7,5.36-8.895,7.637c-0.538,0.383-1.1,0.732-1.631,1.124c-0.572,0.422-0.578,0.836-0.033,1.302
		c1.33,1.134,2.844,1.233,4.444,0.75c2.016-0.609,3.664-1.835,5.232-3.181c1.566-1.344,2.792-1.31,4.258,0.116
		c3.2,3.113,6.996,4.505,11.458,3.892c0.628-0.086,1.119,0.05,1.623,0.426c3.034,2.261,6.085,4.499,9.167,6.77
		c1.623-1.044,3.239-2.085,4.902-3.155c-2.164-5.488-4.312-10.933-6.493-16.466c-0.451,0.154-0.893,0.252-1.288,0.448
		c-2.916,1.449-5.941,1.577-9.051,0.803c-0.27-0.067-0.555-0.072-0.825-0.14c-0.663-0.167-1.008-0.657-0.928-1.283
		c0.078-0.609,0.562-1.026,1.246-0.949c1.109,0.124,2.215,0.294,3.313,0.493c1.187,0.216,2.326,0.068,3.443-0.339
		c1.068-0.389,2.132-0.788,3.177-1.175c-0.02-1.735,0.379-2.333,1.985-2.976c1.837-0.735,3.677-1.462,5.521-2.178
		c1.508-0.585,2.699-0.06,3.308,1.461c0.942,2.355,1.87,4.716,2.799,7.076c0.353,0.897,0.175,1.514-0.504,1.801
		c-0.671,0.284-1.253-0.047-1.608-0.937c-0.966-2.426-1.924-4.854-2.919-7.366c-2.092,0.825-4.154,1.637-6.305,2.485
		c2.621,6.643,5.221,13.233,7.853,19.904c2.129-0.839,4.193-1.652,6.305-2.484c-0.906-2.304-1.787-4.542-2.667-6.781
		c-0.074-0.189-0.171-0.373-0.214-0.569c-0.134-0.624,0.059-1.135,0.669-1.366c0.592-0.224,1.135-0.055,1.422,0.533
		c0.31,0.637,0.537,1.314,0.805,1.972c0.753,1.848,1.508,3.694,2.262,5.542C79.028,37.819,79.028,38.226,79.028,38.632z
		 M39.79,59.833c0.82,0.486,1.575,1.068,2.426,1.405c1.002,0.397,2.139-0.201,2.604-1.174c0.467-0.978,0.225-1.929-0.664-2.617
		c-0.583-0.451-1.173-0.892-1.744-1.356c-0.655-0.533-0.765-1.169-0.326-1.716c0.429-0.535,1.076-0.559,1.755-0.061
		c0.184,0.135,0.361,0.28,0.544,0.418c1.074,0.811,2.121,1.661,3.231,2.42c1.079,0.738,2.472,0.447,3.173-0.569
		c0.696-1.01,0.458-2.268-0.586-3.076c-0.924-0.715-1.855-1.421-2.774-2.141c-0.694-0.544-0.837-1.213-0.399-1.767
		c0.433-0.547,1.062-0.577,1.752-0.073c0.307,0.225,0.602,0.467,0.905,0.697c1.112,0.844,2.198,1.728,3.347,2.519
		c1.08,0.743,2.482,0.459,3.179-0.548c0.711-1.028,0.482-2.262-0.57-3.073c-1.106-0.853-2.241-1.673-3.3-2.58
		c-0.298-0.255-0.528-0.774-0.508-1.158c0.016-0.308,0.416-0.776,0.719-0.844c0.378-0.084,0.911,0.059,1.239,0.295
		c1.605,1.16,3.152,2.399,4.748,3.572c0.374,0.275,0.844,0.492,1.299,0.571c0.984,0.169,1.955-0.432,2.336-1.334
		c0.415-0.983,0.106-2.11-0.867-2.836c-2.869-2.141-5.754-4.262-8.65-6.367c-0.237-0.172-0.612-0.258-0.908-0.23
		c-4.972,0.469-9.192-1.15-12.742-4.59c-0.487-0.472-0.765-0.438-1.241-0.016c-1.74,1.542-3.628,2.867-5.873,3.582
		c-2.256,0.718-4.411,0.576-6.376-0.868c-2.177-1.6-2.07-3.851,0.124-5.433c2.181-1.571,4.261-3.281,6.381-4.937
		c0.16-0.125,0.283-0.297,0.424-0.446c-0.022-0.093-0.043-0.185-0.065-0.278c-2.707-0.147-5.412-0.351-8.12-0.419
		c-1.394-0.035-2.725-0.182-3.997-0.772c-0.474-0.22-0.97-0.393-1.502-0.606c-2.23,5.656-4.43,11.236-6.643,16.85
		c2.083,1.324,4.107,2.609,6.147,3.905c0.637-0.737,1.208-1.451,1.836-2.113c1.15-1.212,2.575-1.604,4.174-1.161
		c1.576,0.437,2.537,1.514,2.924,3.103c0.052,0.215,0.118,0.426,0.177,0.641c1.188-0.043,2.209,0.259,3.087,1.001
		c0.894,0.755,1.308,1.766,1.502,2.887c1.19-0.032,2.214,0.268,3.091,1.005c0.897,0.755,1.328,1.76,1.491,2.882
		C40.625,52.304,42.622,56.761,39.79,59.833z M9.543,40.566c2.629-6.669,5.226-13.257,7.847-19.907
		c-2.142-0.844-4.203-1.656-6.308-2.486C8.454,24.84,5.855,31.433,3.235,38.079C5.354,38.914,7.417,39.728,9.543,40.566z
		 M20.575,50.087c0.199-0.097,0.699-0.198,0.978-0.502c1.095-1.195,2.16-2.422,3.154-3.701c0.583-0.751,0.367-1.788-0.343-2.397
		c-0.726-0.622-1.826-0.648-2.484,0.067c-1.08,1.174-2.11,2.397-3.107,3.644c-0.465,0.582-0.43,1.292-0.074,1.94
		C19.042,49.763,19.605,50.07,20.575,50.087z M29.727,48.85c-0.104-0.801-0.566-1.517-1.265-1.77
		c-0.786-0.284-1.521-0.16-2.086,0.477c-0.959,1.081-1.899,2.18-2.819,3.295c-0.742,0.9-0.648,2.02,0.178,2.709
		c0.803,0.67,1.893,0.582,2.648-0.269c0.943-1.062,1.867-2.141,2.756-3.249C29.409,49.707,29.535,49.252,29.727,48.85z
		 M34.37,61.836c0.234-0.118,0.753-0.233,1.05-0.554c1.067-1.152,2.091-2.348,3.067-3.577c0.607-0.764,0.436-1.845-0.275-2.474
		c-0.735-0.651-1.859-0.664-2.541,0.082c-1.059,1.159-2.07,2.365-3.053,3.59c-0.468,0.582-0.45,1.279-0.097,1.935
		C32.862,61.47,33.418,61.778,34.37,61.836z M34.32,52.753c-0.101-0.817-0.542-1.475-1.251-1.765
		c-0.736-0.301-1.511-0.159-2.08,0.481c-0.995,1.118-1.973,2.252-2.908,3.419c-0.675,0.842-0.528,1.926,0.264,2.585
		c0.764,0.636,1.893,0.574,2.6-0.213c0.982-1.095,1.936-2.217,2.857-3.363C34.055,53.58,34.151,53.137,34.32,52.753z"/>
</g>
</svg>
