<?xml version="1.0" encoding="utf-8"?>
<!-- Generator: Adobe Illustrator 21.0.0, SVG Export Plug-In . SVG Version: 6.00 Build 0)  -->
<svg version="1.1" id="Capa_1" xmlns="http://www.w3.org/2000/svg" xmlns:xlink="http://www.w3.org/1999/xlink" x="0px" y="0px"
	 width="80px" height="80px" viewBox="0 0 80 80" style="enable-background:new 0 0 80 80;" xml:space="preserve">
<style type="text/css">
.st0{
		fill:transparent;
		-webkit-animation: colorV 2s forwards 2.5s;
		-moz-webkit-animation: colorV 2s forwards 2.5s;
		-o-webkit-animation: colorV 2s forwards 2.5s;
		animation: colorV 2s forwards 2.5s;
	}

	@-webkit-keyframes colorV{
		from{fill:transparent;}
		to{fill:#038cd4}
	}
	@keyframes colorV{
		from{fill:transparent;}
		to{fill:#038cd4}
	}
	
	.st1{
		fill:none;
		stroke:#101a4d;
		stroke-miterlimit:10;
		stroke-width:1.5px;
		stroke-dasharray:100;
		stroke-dashoffset:0;
		-webkit-animation: animacionV 5s forwards;
		-moz-webkit-animation: animacionV 5s forwards;
		-o-webkit-animation: animacionV 5s forwards;
		animation: animacionV 5s forwards;
	}

	@-webkit-keyframes animacionV{
		0%{stroke-dashoffset: 100;}
		80%{stroke:#101a4d}
		100%{stroke-dashoffset: 0;stroke:transparent}
	}
	@keyframes animacionV{
		0%{stroke-dashoffset: 100;}
		80%{stroke:#101a4d}
		100%{stroke-dashoffset: 0;stroke:transparent}
	}
</style>
<g id="build_1_">
	<g>
		<g>
			<path class="st0" d="M18.589,74.933c-4.353,0-8.558,0.003-12.763-0.001c-2.144-0.002-2.731-0.593-2.732-2.738
				c-0.002-8.54-0.002-17.08,0-25.62c0-2.155,0.58-2.736,2.725-2.737c4.206-0.002,8.411-0.001,12.806-0.001c0-0.478,0-0.902,0-1.326
				c0-7.731-0.001-15.461,0.001-23.192c0.001-2.07,0.612-2.686,2.655-2.692c1.005-0.003,2.01,0,3.177,0
				c0-1.844-0.006-3.609,0.001-5.374c0.012-2.782,1.571-4.327,4.378-4.334c3.026-0.007,6.052-0.002,9.163-0.002
				c0-1.941,0-3.788,0-5.735c1.309,0,2.537,0,3.9,0c0,1.841,0,3.719,0,5.735c3.111,0,6.09-0.003,9.07,0.003
				c0.484,0.001,0.98-0.019,1.45,0.074c1.802,0.357,3.072,1.911,3.105,3.826c0.033,1.893,0.007,3.786,0.007,5.813
				c1.179,0,2.259-0.005,3.339,0.001c1.822,0.011,2.491,0.663,2.493,2.487c0.008,7.892,0.004,15.785,0.004,23.677
				c0,0.281,0,0.562,0,1.032c0.432,0,0.816,0,1.2,0c3.924,0.002,7.849,0.001,11.773,0.008c1.909,0.003,2.555,0.637,2.557,2.541
				c0.008,8.661,0.009,17.323,0.007,25.984c0,1.9-0.659,2.565-2.539,2.568c-4.282,0.006-8.565,0.002-13.005,0.002
				c0,0.538,0.005,1.007-0.001,1.475c-0.023,1.726-0.698,2.398-2.454,2.403c-3.479,0.01-6.958,0.008-10.438,0.007
				c-8.9-0.001-17.801-0.003-26.702-0.005c-2.677-0.001-3.092-0.405-3.138-3.057C18.626,75.522,18.607,75.288,18.589,74.933z
				 M22.603,20.576c0,18.156,0,36.221,0,54.288c3.226,0,6.366,0,9.625,0c0-1.871-0.002-3.682,0-5.492
				c0.006-4.135,0.024-4.154,4.216-4.16c2.873-0.004,5.745-0.003,8.618,0c2.126,0.002,2.702,0.591,2.704,2.76
				c0.002,2.291,0.001,4.583,0.001,6.864c3.322,0,6.491,0,9.651,0c0-18.128,0-36.165,0-54.259
				C45.802,20.576,34.246,20.576,22.603,20.576z M7.064,47.777c0,7.799,0,15.499,0,23.165c3.901,0,7.715,0,11.504,0
				c0-7.769,0-15.44,0-23.165C14.718,47.777,10.933,47.777,7.064,47.777z M61.421,70.97c3.872,0,7.686,0,11.517,0
				c0-7.77,0-15.47,0-23.156c-3.894,0-7.708,0-11.517,0C61.421,55.577,61.421,63.248,61.421,70.97z M51.594,10.892
				c-7.795,0-15.487,0-23.193,0c0,1.933,0,3.776,0,5.679c7.751,0,15.443,0,23.193,0C51.594,14.667,51.594,12.824,51.594,10.892z
				 M43.828,69.167c-2.629,0-5.116,0-7.636,0c0,1.941,0,3.811,0,5.673c2.597,0,5.113,0,7.636,0
				C43.828,72.909,43.828,71.067,43.828,69.167z"/>
			<path class="st0" d="M51.555,30.217c-7.742,0-15.382,0-23.117,0c0-1.247,0-2.474,0-3.79c7.673,0,15.37,0,23.117,0
				C51.555,27.696,51.555,28.951,51.555,30.217z"/>
			<path class="st0" d="M51.593,36.142c0,1.294,0,2.491,0,3.751c-7.724,0-15.391,0-23.154,0c0-1.21,0-2.437,0-3.751
				C36.112,36.142,43.807,36.142,51.593,36.142z"/>
			<path class="st0" d="M51.628,45.851c0,1.286,0,2.456,0,3.723c-7.716,0-15.411,0-23.196,0c0-1.191,0-2.417,0-3.723
				C36.127,45.851,43.822,45.851,51.628,45.851z"/>
			<path class="st0" d="M28.399,59.317c0-1.251,0-2.45,0-3.739c7.695,0,15.392,0,23.171,0c0,1.214,0,2.44,0,3.739
				C43.854,59.317,36.157,59.317,28.399,59.317z"/>
			<path class="st0" d="M14.721,51.709c0,1.27,0,2.437,0,3.695c-1.247,0-2.471,0-3.779,0c0-1.208,0-2.432,0-3.695
				C12.209,51.709,13.461,51.709,14.721,51.709z"/>
			<path class="st0" d="M14.721,59.483c0,1.268,0,2.434,0,3.693c-1.246,0-2.47,0-3.777,0c0-1.203,0-2.427,0-3.693
				C12.21,59.483,13.462,59.483,14.721,59.483z"/>
			<path class="st0" d="M65.31,51.659c1.269,0,2.464,0,3.743,0c0,1.246,0,2.471,0,3.768c-1.232,0-2.456,0-3.743,0
				C65.31,54.189,65.31,52.993,65.31,51.659z"/>
			<path class="st0" d="M65.29,63.209c0-1.279,0-2.475,0-3.753c1.254,0,2.478,0,3.774,0c0,1.243,0,2.469,0,3.753
				C67.819,63.209,66.622,63.209,65.29,63.209z"/>
		</g>
	</g>
</g>
<g id="delineado-build">
	<g>
		<path class="st1" d="M18.589,74.933c-4.353,0-8.558,0.003-12.763-0.001c-2.144-0.002-2.731-0.593-2.732-2.738
			c-0.002-8.54-0.002-17.08,0-25.62c0-2.155,0.58-2.736,2.725-2.737c4.206-0.002,8.411-0.001,12.806-0.001c0-0.478,0-0.902,0-1.326
			c0-7.731-0.001-15.461,0.001-23.192c0.001-2.07,0.612-2.686,2.655-2.692c1.005-0.003,2.01,0,3.177,0
			c0-1.844-0.006-3.609,0.001-5.374c0.012-2.782,1.571-4.327,4.378-4.334c3.026-0.007,6.052-0.002,9.163-0.002
			c0-1.941,0-3.788,0-5.735c1.309,0,2.537,0,3.9,0c0,1.841,0,3.719,0,5.735c3.111,0,6.09-0.003,9.07,0.003
			c0.484,0.001,0.98-0.019,1.45,0.074c1.802,0.357,3.072,1.911,3.105,3.826c0.033,1.893,0.007,3.786,0.007,5.813
			c1.179,0,2.259-0.005,3.339,0.001c1.822,0.011,2.491,0.663,2.493,2.487c0.008,7.892,0.004,15.785,0.004,23.677
			c0,0.281,0,0.562,0,1.032c0.432,0,0.816,0,1.2,0c3.924,0.002,7.849,0.001,11.773,0.008c1.909,0.003,2.555,0.637,2.557,2.541
			c0.008,8.661,0.009,17.323,0.007,25.984c0,1.9-0.659,2.565-2.539,2.568c-4.282,0.006-8.565,0.002-13.005,0.002
			c0,0.538,0.005,1.007-0.001,1.475c-0.023,1.726-0.698,2.398-2.454,2.403c-3.479,0.01-6.958,0.008-10.438,0.007
			c-8.9-0.001-17.801-0.003-26.702-0.005c-2.677-0.001-3.092-0.405-3.138-3.057C18.626,75.522,18.607,75.288,18.589,74.933z
			 M22.603,20.576c0,18.156,0,36.221,0,54.288c3.226,0,6.366,0,9.625,0c0-1.871-0.002-3.682,0-5.492
			c0.006-4.135,0.024-4.154,4.216-4.16c2.873-0.004,5.745-0.003,8.618,0c2.126,0.002,2.702,0.591,2.704,2.76
			c0.002,2.291,0.001,4.583,0.001,6.864c3.322,0,6.491,0,9.651,0c0-18.128,0-36.165,0-54.259
			C45.802,20.576,34.246,20.576,22.603,20.576z M7.064,47.777c0,7.799,0,15.499,0,23.165c3.901,0,7.715,0,11.504,0
			c0-7.769,0-15.44,0-23.165C14.718,47.777,10.933,47.777,7.064,47.777z M61.421,70.97c3.872,0,7.686,0,11.517,0
			c0-7.77,0-15.47,0-23.156c-3.894,0-7.708,0-11.517,0C61.421,55.577,61.421,63.248,61.421,70.97z M51.594,10.892
			c-7.795,0-15.487,0-23.193,0c0,1.933,0,3.776,0,5.679c7.751,0,15.443,0,23.193,0C51.594,14.667,51.594,12.824,51.594,10.892z
			 M43.828,69.167c-2.629,0-5.116,0-7.636,0c0,1.941,0,3.811,0,5.673c2.597,0,5.113,0,7.636,0
			C43.828,72.909,43.828,71.067,43.828,69.167z"/>
		<path class="st1" d="M51.555,30.217c-7.742,0-15.382,0-23.117,0c0-1.247,0-2.474,0-3.79c7.673,0,15.37,0,23.117,0
			C51.555,27.696,51.555,28.951,51.555,30.217z"/>
		<path class="st1" d="M51.593,36.142c0,1.294,0,2.491,0,3.751c-7.724,0-15.391,0-23.154,0c0-1.21,0-2.437,0-3.751
			C36.112,36.142,43.807,36.142,51.593,36.142z"/>
		<path class="st1" d="M51.628,45.851c0,1.286,0,2.456,0,3.723c-7.716,0-15.411,0-23.196,0c0-1.191,0-2.417,0-3.723
			C36.127,45.851,43.822,45.851,51.628,45.851z"/>
		<path class="st1" d="M28.399,59.317c0-1.251,0-2.45,0-3.739c7.695,0,15.392,0,23.171,0c0,1.214,0,2.44,0,3.739
			C43.854,59.317,36.157,59.317,28.399,59.317z"/>
		<path class="st1" d="M14.721,51.709c0,1.27,0,2.437,0,3.695c-1.247,0-2.471,0-3.779,0c0-1.208,0-2.432,0-3.695
			C12.209,51.709,13.461,51.709,14.721,51.709z"/>
		<path class="st1" d="M14.721,59.483c0,1.268,0,2.434,0,3.693c-1.246,0-2.47,0-3.777,0c0-1.203,0-2.427,0-3.693
			C12.21,59.483,13.462,59.483,14.721,59.483z"/>
		<path class="st1" d="M65.31,51.659c1.269,0,2.464,0,3.743,0c0,1.246,0,2.471,0,3.768c-1.232,0-2.456,0-3.743,0
			C65.31,54.189,65.31,52.993,65.31,51.659z"/>
		<path class="st1" d="M65.29,63.209c0-1.279,0-2.475,0-3.753c1.254,0,2.478,0,3.774,0c0,1.243,0,2.469,0,3.753
			C67.819,63.209,66.622,63.209,65.29,63.209z"/>
	</g>
</g>
</svg>
